<mxfile host="app.diagrams.net" modified="2023-09-28T16:18:00.661Z" agent="Mozilla/5.0 (Windows NT 10.0; Win64; x64) AppleWebKit/537.36 (KHTML, like Gecko) Chrome/117.0.0.0 Safari/537.36 Edg/117.0.2045.43" version="21.7.4" etag="6WiHtwgsMf2b09J6ZtV4" type="github">
  <diagram name="PÃ¡gina-1" id="7PEwG1WY2FLOrSVksg2T">
    <mxGraphModel>
      <root>
        <mxCell id="0" />
        <mxCell id="1" parent="0" />
      </root>
    </mxGraphModel>
  </diagram>
</mxfile>
